<svg xmlns="http://www.w3.org/2000/svg" aria-hidden="true" style="position:absolute;width:0;height:0;overflow:hidden">
  <defs>
    <symbol id="icon-vector-icon" viewBox="0 0 40 32">
      <path d="m33.785 1.02-.001-.002a3.664 3.664 0 0 1 5.114.041 3.712 3.712 0 0 1 .135 5.141L19.455 30.817a3.674 3.674 0 0 1-4.074.914 3.675 3.675 0 0 1-1.226-.815L1.171 17.862A3.693 3.693 0 0 1 0 15.22a3.714 3.714 0 0 1 1.077-2.682 3.664 3.664 0 0 1 4.1-.763 3.68 3.68 0 0 1 1.195.857l3.878 3.897c3.396 3.412 9.014 3.075 11.977-.72L33.688 1.127a1.384 1.384 0 0 1 .095-.109z"/>
    </symbol>
  </defs>
</svg>
